<svg id="Delivery--Streamline-Carbon" xmlns="http://www.w3.org/2000/svg" viewBox="0 0 16 16" height="16" width="16">
  <desc>
    Delivery Streamline Icon: https://streamlinehq.com
  </desc>
  <defs></defs>
  <path d="M2 8h6v1H2Z" fill="#000000" stroke-width="0.5"></path>
  <path d="M1 5.5h5v1H1Z" fill="#000000" stroke-width="0.5"></path>
  <path d="m14.95945 8.3032 -1.5 -3.5A0.49925 0.49925 0 0 0 13 4.5h-1.5V3.5a0.5 0.5 0 0 0 -0.5 -0.5H3v1h7.5v6.2781A1.9962 1.9962 0 0 0 9.57105 11.5h-3.1421a2 2 0 1 0 0 1h3.1421a1.9903 1.9903 0 0 0 3.8579 0H14.5a0.5 0.5 0 0 0 0.5 -0.5v-3.5a0.49825 0.49825 0 0 0 -0.04055 -0.1968ZM4.5 13a1 1 0 1 1 1 -1 1.00115 1.00115 0 0 1 -1 1Zm7 -7.5h1.1704l1.07155 2.5H11.5Zm0 7.5a1 1 0 1 1 1 -1 1.00115 1.00115 0 0 1 -1 1Zm2.5 -1.5h-0.57105A1.9977 1.9977 0 0 0 11.5 10v-1h2.5Z" fill="#000000" stroke-width="0.5"></path>
  <path id="_Transparent_Rectangle_" d="M0 0h16v16H0Z" fill="none" stroke-width="0.5"></path>
</svg>