<svg xmlns="http://www.w3.org/2000/svg" viewBox="0 0 16 16" id="Fork-Spoon-Fill--Streamline-Mingcute-Fill" height="16" width="16">
  <desc>
    Fork Spoon Fill Streamline Icon: https://streamlinehq.com
  </desc>
  <g fill="none" fill-rule="nonzero">
    <path d="M16 0v16H0V0h16ZM8.395999999999999 15.505333333333333l-0.008 0.0013333333333333333 -0.047333333333333324 0.023333333333333334 -0.013333333333333332 0.0026666666666666666 -0.009333333333333332 -0.0026666666666666666 -0.047333333333333324 -0.023999999999999997c-0.006666666666666666 -0.002 -0.012666666666666666 0 -0.016 0.004l-0.0026666666666666666 0.006666666666666666 -0.011333333333333334 0.2853333333333333 0.003333333333333333 0.013333333333333332 0.006666666666666666 0.008666666666666666 0.06933333333333333 0.049333333333333326 0.009999999999999998 0.0026666666666666666 0.008 -0.0026666666666666666 0.06933333333333333 -0.049333333333333326 0.008 -0.010666666666666666 0.0026666666666666666 -0.011333333333333334 -0.011333333333333334 -0.2846666666666666c-0.0013333333333333333 -0.006666666666666666 -0.005999999999999999 -0.011333333333333334 -0.010666666666666666 -0.011999999999999999Zm0.176 -0.07533333333333334 -0.009333333333333332 0.0013333333333333333 -0.12266666666666666 0.062 -0.006666666666666666 0.006666666666666666 -0.002 0.007333333333333332 0.011999999999999999 0.2866666666666666 0.003333333333333333 0.008 0.005333333333333333 0.005333333333333333 0.134 0.06133333333333333c0.008 0.0026666666666666666 0.015333333333333332 0 0.019333333333333334 -0.005333333333333333l0.0026666666666666666 -0.009333333333333332 -0.02266666666666667 -0.4093333333333333c-0.002 -0.008 -0.006666666666666666 -0.013333333333333332 -0.013333333333333332 -0.014666666666666665Zm-0.4766666666666666 0.0013333333333333333a0.015333333333333332 0.015333333333333332 0 0 0 -0.018 0.004l-0.004 0.009333333333333332 -0.02266666666666667 0.4093333333333333c0 0.008 0.004666666666666666 0.013333333333333332 0.011333333333333334 0.016l0.009999999999999998 -0.0013333333333333333 0.134 -0.062 0.006666666666666666 -0.005333333333333333 0.002 -0.007333333333333332 0.011999999999999999 -0.2866666666666666 -0.002 -0.008 -0.006666666666666666 -0.006666666666666666 -0.12266666666666666 -0.06133333333333333Z" stroke-width="0.6667"></path>
    <path fill="#000000" d="M11.343333333333334 2.0366666666666666a0.6666666666666666 0.6666666666666666 0 0 1 0.84 1.032l-0.06533333333333333 0.05266666666666667 -1.4006666666666665 1.0006666666666666a1.3086666666666666 1.3086666666666666 0 0 0 -0.5293333333333333 1.2913333333333332l0.021333333333333333 0.10133333333333333 2.2286666666666664 -2.2286666666666664a0.6666666666666666 0.6666666666666666 0 0 1 0.998 0.88l-0.05533333333333333 0.06266666666666666 -2.2286666666666664 2.2286666666666664c0.47 0.12 0.99 -0.026666666666666665 1.3239999999999998 -0.42l0.06866666666666665 -0.088 1.0006666666666666 -1.4006666666666665a0.6666666666666666 0.6666666666666666 0 0 1 1.1293333333333333 0.7033333333333333l-0.04466666666666667 0.07133333333333333 -1 1.401333333333333a2.6453333333333333 2.6453333333333333 0 0 1 -3.3693333333333335 0.8106666666666666l-0.12 -0.06666666666666667 -1.5313333333333334 1.5306666666666664 2.771333333333333 2.7720000000000002a0.6666666666666666 0.6666666666666666 0 0 1 0.05533333333333333 0.88l-0.05533333333333333 0.06266666666666666a0.6666666666666666 0.6666666666666666 0 0 1 -0.88 0.05533333333333333l-0.06266666666666666 -0.05533333333333333 -2.771333333333333 -2.7720000000000002 -2.771333333333333 2.7720000000000002a0.6666666666666666 0.6666666666666666 0 0 1 -0.88 0.05533333333333333l-0.06266666666666666 -0.05533333333333333a0.6666666666666666 0.6666666666666666 0 0 1 -0.05533333333333333 -0.88l0.05533333333333333 -0.06266666666666666 2.771333333333333 -2.7720000000000002 -1.0733333333333333 -1.0733333333333333a3.0133333333333328 3.0133333333333328 0 0 1 -0.9033333333333333 0.3153333333333333l-0.16666666666666666 0.024666666666666663a2.594 2.594 0 0 1 -2.186 -0.7666666666666666C1.7753333333333332 6.879333333333333 1.4213333333333333 6.1 1.3333333333333333 5.351333333333333c-0.08666666666666667 -0.7366666666666666 0.07999999999999999 -1.526 0.62 -2.0653333333333332 0.5393333333333333 -0.54 1.3279999999999998 -0.7066666666666667 2.0646666666666667 -0.62 0.7486666666666666 0.08866666666666667 1.5286666666666666 0.44266666666666665 2.1479999999999997 1.0619999999999998a2.594 2.594 0 0 1 0.7666666666666666 2.1853333333333333c-0.039999999999999994 0.33666666666666667 -0.13799999999999998 0.6559999999999999 -0.27066666666666667 0.9339999999999999l-0.06933333333333333 0.13599999999999998 1.0733333333333333 1.0733333333333333 1.532 -1.5306666666666664a2.6453333333333333 2.6453333333333333 0 0 1 0.6293333333333333 -3.4019999999999997l0.11466666666666665 -0.08666666666666667 1.401333333333333 -1.0006666666666666Z" stroke-width="0.6667"></path>
  </g>
</svg>