<svg xmlns="http://www.w3.org/2000/svg" fill="none" viewBox="0 0 24 24" id="Grocery--Streamline-Rounded-Material" height="24" width="24">
  <desc>
    Grocery Streamline Icon: https://streamlinehq.com
  </desc>
  <path fill="#000000" d="M16.15 22c-1.66665 0 -3.05835 -0.55835 -4.175 -1.675s-1.675 -2.50835 -1.675 -4.175c0 -1.66665 0.55835 -3.05835 1.675 -4.175s2.50835 -1.675 4.175 -1.675c1.66665 0 3.05835 0.55835 4.175 1.675S22 14.48335 22 16.15c0 1.66665 -0.55835 3.05835 -1.675 4.175S17.81665 22 16.15 22Zm0 -1.5c1.2 0 2.225 -0.425 3.075 -1.275 0.85 -0.85 1.275 -1.875 1.275 -3.075 0 -1.2 -0.425 -2.225 -1.275 -3.075 -0.85 -0.85 -1.875 -1.275 -3.075 -1.275 -1.2 0 -2.225 0.425 -3.075 1.275 -0.85 0.85 -1.275 1.875 -1.275 3.075 0 1.2 0.425 2.225 1.275 3.075 0.85 0.85 1.875 1.275 3.075 1.275ZM3.5 20c-0.4 0 -0.75 -0.15 -1.05 -0.45 -0.3 -0.3 -0.45 -0.65 -0.45 -1.05V10.25c0 -0.21665 0.0125 -0.39165 0.0375 -0.525 0.025 -0.13335 0.079165 -0.29165 0.1625 -0.475L4.5 4.25H3.95c-0.25 0 -0.454165 -0.079165 -0.6125 -0.2375C3.179165 3.854165 3.1 3.65 3.1 3.4V2.85c0 -0.25 0.079165 -0.454165 0.2375 -0.6125C3.495835 2.079165 3.7 2 3.95 2h6.525c0.25 0 0.45415 0.079165 0.6125 0.2375 0.15835 0.158335 0.2375 0.3625 0.2375 0.6125v0.55c0 0.25 -0.07915 0.454165 -0.2375 0.6125 -0.15835 0.158335 -0.3625 0.2375 -0.6125 0.2375h-0.55l2.4 5.55c-0.2 0.1 -0.40835 0.225 -0.625 0.375s-0.41665 0.3 -0.6 0.45L8.225 4.25h-2.05L3.5 10.025V18.5h5.6c0.05 0.25 0.13335 0.50835 0.25 0.775 0.11665 0.26665 0.24165 0.50835 0.375 0.725H3.5Zm12.65 -10.95c-0.6 0 -1.1 -0.2 -1.5 -0.6 -0.4 -0.4 -0.6 -0.9 -0.6 -1.5s0.2 -1.1 0.6 -1.5c0.4 -0.4 0.9 -0.6 1.5 -0.6v4.2c0 -0.6 0.2 -1.1 0.6 -1.5 0.4 -0.4 0.9 -0.6 1.5 -0.6s1.1 0.2 1.5 0.6c0.4 0.4 0.6 0.9 0.6 1.5h-4.2Z" stroke-width="0.5"></path>
</svg>