<svg xmlns="http://www.w3.org/2000/svg" fill="none" viewBox="0 0 24 24" id="Ramen-Dining--Streamline-Sharp-Material" height="24" width="24">
  <desc>
    Ramen Dining Streamline Icon: https://streamlinehq.com
  </desc>
  <path fill="#000000" d="M9.4 20.5h5.175v-1.4l0.9 -0.375c1.23335 -0.51665 2.24585 -1.1875 3.0375 -2.0125 0.79165 -0.825 1.35415 -1.72915 1.6875 -2.7125H3.8c0.333335 0.98335 0.9 1.89165 1.7 2.725 0.8 0.83335 1.8 1.5 3 2l0.9 0.375V20.5Zm-1.5 1.5v-1.95c-1.75 -0.7 -3.141665 -1.71665 -4.175 -3.05 -1.033335 -1.33335 -1.608335 -2.83335 -1.725 -4.5h2V4l18 -2v1.25L10.25 4.55v2.175H22v1.25H10.25V12.5H22c-0.1 1.66665 -0.67915 3.16665 -1.7375 4.5 -1.05835 1.33335 -2.45415 2.35 -4.1875 3.05V22H7.9Zm-0.15 -15.275H9v-2.05l-1.25 0.15v1.9Zm-2.5 0H6.5V4.95l-1.25 0.15v1.625Zm2.5 5.775H9v-4.525h-1.25V12.5Zm-2.5 0H6.5v-4.525h-1.25V12.5Z" stroke-width="0.5"></path>
</svg>